<svg xmlns="http://www.w3.org/2000/svg" width="497" height="54">
    <path fill="#303F5B" fill-rule="evenodd" d="M493.903 30.609H476.69c.676 4.472 3.848 6.968 7.904 6.968 2.652 0 4.732-.936 6.501-2.392.468-.364.884-.572 1.612-.572 1.404 0 2.496 1.092 2.496 2.548 0 .78-.364 1.456-.832 1.924-2.496 2.237-5.616 3.641-9.881 3.641-7.956 0-14.092-5.773-14.092-14.249v-.104c0-7.852 5.564-14.3 13.416-14.3 8.737 0 13.053 7.176 13.053 13.52 0 1.768-1.352 3.016-2.964 3.016zm-10.141-11.388c-3.848 0-6.552 2.964-7.124 7.228h14.093c-.416-4.056-2.809-7.228-6.969-7.228zm-21.428 23.141c-1.768 0-3.172-1.353-3.172-3.121v-1.716c-2.028 2.861-4.888 5.149-9.36 5.149-6.449 0-12.741-5.149-12.741-14.249v-.104c0-9.1 6.188-14.248 12.741-14.248 4.524 0 7.384 2.236 9.36 4.836V7a3.096 3.096 0 0 1 3.12-3.12c1.768 0 3.172 1.352 3.172 3.12v32.241a3.097 3.097 0 0 1-3.12 3.121zm-3.068-14.041c0-5.304-3.744-8.788-7.956-8.788-4.316 0-7.905 3.328-7.905 8.788v.104c0 5.304 3.641 8.788 7.905 8.788 4.212 0 7.956-3.536 7.956-8.788v-.104zm-39.519 5.616h-2.808v5.408c0 1.717-1.352 3.017-3.068 3.017s-3.069-1.3-3.069-3.017v-5.408h-16.276c-1.716 0-3.12-1.248-3.12-3.016 0-1.248.468-2.288 1.404-3.38L409.918 7.26c1.144-1.352 2.029-2.08 3.901-2.08 1.716 0 3.12 1.352 3.12 3.068v20.437h2.808a2.63 2.63 0 0 1 2.652 2.652c0 1.456-1.144 2.6-2.652 2.6zm-8.945-19.656l-11.96 14.404h11.96V14.281zM390.19 39.294a2.797 2.797 0 0 1-2.808 2.808h-20.644c-1.977 0-3.433-1.144-3.433-3.017 0-1.248.572-2.288 1.664-3.172l11.181-9.516c4.992-4.212 6.812-6.552 6.812-9.828 0-3.589-2.548-5.669-5.876-5.669-2.912 0-4.94 1.352-7.176 4.057a2.927 2.927 0 0 1-2.236.988 2.908 2.908 0 0 1-2.913-2.913c0-.676.26-1.404.728-1.976 2.965-3.692 6.345-5.876 12.065-5.876 7.124 0 12.012 4.368 12.012 10.869v.104c0 5.72-3.016 8.84-9.464 14.092l-7.488 6.24h14.768a2.797 2.797 0 0 1 2.808 2.809zm-32.281-8.685h-17.212c.676 4.472 3.848 6.968 7.904 6.968 2.652 0 4.732-.936 6.5-2.392.468-.364.884-.572 1.612-.572 1.404 0 2.496 1.092 2.496 2.548 0 .78-.364 1.456-.832 1.924-2.496 2.237-5.616 3.641-9.88 3.641-7.956 0-14.093-5.773-14.093-14.249v-.104c0-7.852 5.565-14.3 13.417-14.3 8.736 0 13.052 7.176 13.052 13.52 0 1.768-1.352 3.016-2.964 3.016zm-10.14-11.388c-3.848 0-6.552 2.964-7.124 7.228h14.092c-.416-4.056-2.808-7.228-6.968-7.228zm-17.753.832h-4.94v13.468c0 2.444 1.248 3.432 3.38 3.432.728 0 1.352-.156 1.56-.156 1.404 0 2.652 1.144 2.652 2.6 0 1.145-.78 2.081-1.664 2.445a12.516 12.516 0 0 1-4.316.728c-4.628 0-7.904-2.028-7.904-8.061V20.053h-1.04a2.685 2.685 0 0 1-2.704-2.704 2.685 2.685 0 0 1 2.704-2.704h1.04V9.964c0-1.716 1.404-3.12 3.172-3.12a3.13 3.13 0 0 1 3.12 3.12v4.681h4.94c1.508 0 2.756 1.196 2.756 2.704 0 1.508-1.248 2.704-2.756 2.704zm-21.205 22.309c-1.768 0-3.172-1.353-3.172-3.121v-12.74c0-4.264-2.132-6.708-5.876-6.708-3.64 0-6.188 2.548-6.188 6.812v12.636c0 1.768-1.404 3.121-3.172 3.121a3.098 3.098 0 0 1-3.121-3.121V17.505c0-1.768 1.353-3.172 3.121-3.172a3.152 3.152 0 0 1 3.172 3.172v1.352c1.768-2.548 4.316-4.784 8.58-4.784 6.188 0 9.776 4.16 9.776 10.504v14.664c0 1.768-1.352 3.121-3.12 3.121zm-29.337-11.753h-17.213c.676 4.472 3.848 6.968 7.904 6.968 2.652 0 4.732-.936 6.5-2.392.468-.364.884-.572 1.613-.572 1.404 0 2.496 1.092 2.496 2.548 0 .78-.364 1.456-.832 1.924-2.497 2.237-5.617 3.641-9.881 3.641-7.956 0-14.092-5.773-14.092-14.249v-.104c0-7.852 5.564-14.3 13.416-14.3 8.736 0 13.053 7.176 13.053 13.52 0 1.768-1.352 3.016-2.964 3.016zm-10.141-11.388c-3.848 0-6.552 2.964-7.124 7.228h14.092c-.416-4.056-2.808-7.228-6.968-7.228zm-24.435 11.908v8.112c0 1.717-1.404 3.121-3.172 3.121a3.097 3.097 0 0 1-3.12-3.121V17.505c0-1.768 1.352-3.172 3.12-3.172a3.152 3.152 0 0 1 3.172 3.172v2.808c1.457-3.432 4.161-6.032 6.917-6.032 1.976 0 3.12 1.3 3.12 3.12 0 1.664-1.092 2.756-2.496 3.016-4.472.78-7.541 4.212-7.541 10.712zm-24.023 11.545c-4.576 0-7.436-2.288-9.36-4.837v9.725c0 1.768-1.404 3.12-3.172 3.12a3.096 3.096 0 0 1-3.12-3.12V17.505c0-1.768 1.352-3.172 3.12-3.172a3.152 3.152 0 0 1 3.172 3.172v1.716c2.028-2.86 4.888-5.148 9.36-5.148 6.449 0 12.741 5.096 12.741 14.248v.104c0 9.1-6.24 14.249-12.741 14.249zm6.345-14.353c0-5.304-3.589-8.788-7.853-8.788-4.264 0-8.008 3.536-8.008 8.788v.104c0 5.252 3.744 8.788 8.008 8.788 4.316 0 7.853-3.38 7.853-8.788v-.104zm-31.554 14.041c-1.716 0-3.172-1.353-3.172-3.121v-1.404c-1.768 2.6-4.316 4.837-8.58 4.837-6.189 0-9.777-4.161-9.777-10.557V17.505c0-1.768 1.404-3.172 3.121-3.172a3.152 3.152 0 0 1 3.172 3.172v12.74c0 4.264 2.132 6.656 5.876 6.656 3.64 0 6.188-2.496 6.188-6.76V17.505a3.152 3.152 0 0 1 3.172-3.172c1.716 0 3.172 1.404 3.172 3.172v21.736c0 1.717-1.404 3.121-3.172 3.121zm-34.653-11.233v8.112c0 1.717-1.404 3.121-3.172 3.121a3.097 3.097 0 0 1-3.12-3.121V17.505c0-1.768 1.352-3.172 3.12-3.172a3.152 3.152 0 0 1 3.172 3.172v2.808c1.456-3.432 4.16-6.032 6.916-6.032 1.976 0 3.12 1.3 3.12 3.12 0 1.664-1.091 2.756-2.496 3.016-4.472.78-7.54 4.212-7.54 10.712zm-14.101-.52h-17.213c.676 4.472 3.848 6.968 7.904 6.968 2.653 0 4.733-.936 6.501-2.392.468-.364.884-.572 1.612-.572 1.404 0 2.496 1.092 2.496 2.548 0 .78-.364 1.456-.832 1.924-2.496 2.237-5.616 3.641-9.881 3.641-7.956 0-14.092-5.773-14.092-14.249v-.104c0-7.852 5.564-14.3 13.417-14.3 8.736 0 13.052 7.176 13.052 13.52 0 1.768-1.352 3.016-2.964 3.016zm-10.14-11.388c-3.849 0-6.553 2.964-7.125 7.228h14.093c-.416-4.056-2.808-7.228-6.968-7.228zm-21.335 23.141c-1.717 0-3.173-1.353-3.173-3.121v-1.404c-1.768 2.6-4.316 4.837-8.58 4.837-6.188 0-9.776-4.161-9.776-10.557V17.505c0-1.768 1.404-3.172 3.12-3.172a3.152 3.152 0 0 1 3.172 3.172v12.74c0 4.264 2.132 6.656 5.876 6.656 3.64 0 6.188-2.496 6.188-6.76V17.505a3.152 3.152 0 0 1 3.173-3.172c1.716 0 3.172 1.404 3.172 3.172v21.736c0 1.717-1.404 3.121-3.172 3.121zM80.783 31.129v8.112c0 1.717-1.404 3.121-3.172 3.121a3.097 3.097 0 0 1-3.12-3.121V17.505c0-1.768 1.352-3.172 3.12-3.172a3.152 3.152 0 0 1 3.172 3.172v2.808c1.457-3.432 4.161-6.032 6.917-6.032 1.976 0 3.12 1.3 3.12 3.12 0 1.664-1.092 2.756-2.496 3.016-4.472.78-7.541 4.212-7.541 10.712z"/>
    <path fill="#73CBD1" fill-rule="evenodd" d="M426.204 38.253v.52c0 2.029 1.56 3.589 3.692 3.589 2.08 0 3.64-1.56 3.64-3.589v-.52c0-2.028-1.56-3.588-3.64-3.588-2.132 0-3.692 1.56-3.692 3.588z"/>
    <path fill="#F78460" fill-rule="evenodd" d="M28 54h-2a8 8 0 0 1-8-8V36H8a8 8 0 0 1-8-8v-2a8 8 0 0 1 8-8h20a8 8 0 0 1 8 8v20a8 8 0 0 1-8 8z"/>
    <path fill="#73CBD1" fill-rule="evenodd" d="M46 36H26a8 8 0 0 1-8-8V8a8 8 0 0 1 8-8h2a8 8 0 0 1 8 8v10h10a8 8 0 0 1 8 8v2a8 8 0 0 1-8 8z"/>
</svg>
