<svg xmlns="http://www.w3.org/2000/svg" width="481" height="45">
    <path fill="#EC393D" fill-rule="evenodd" d="M473.277 40.405v-1.94c-1.4 1.441-3.863 2.55-6.607 2.55-5.488 0-10.975-3.325-10.975-10.362 0-6.427 5.263-9.641 11.927-9.641 2.688 0 4.423.554 5.655 1.164v-1.441c0-2.05-1.4-3.712-4.199-3.712-3.528 0-5.376.498-8.064 1.939l-2.967-5.319c3.415-1.94 6.271-2.937 11.031-2.937 7.111 0 11.927 3.657 11.927 10.195v19.504h-7.728zm0-12.19c-1.344-.831-2.631-1.219-5.375-1.219-2.912 0-4.48 1.33-4.48 3.657 0 2.05 1.176 3.879 4.48 3.879 2.52 0 4.535-1.274 5.375-2.66v-3.657zm-24.878-9.863c-3.024 0-4.984 1.274-4.984 6.317v15.736h-7.727v-29.09h7.727v1.939c1.344-1.384 3.304-2.548 6.048-2.548 2.519 0 4.423.997 5.431 2.05l-2.015 7.48c-1.233-1.108-2.744-1.884-4.48-1.884zm-34.616 9.974c.28 3.989 3.247 5.485 6.047 5.485 2.128 0 3.92-.776 5.04-2.05l5.487 4.543c-2.352 2.993-6.607 4.711-10.527 4.711-8.455 0-13.831-5.93-13.831-15.127 0-8.92 5.656-15.182 13.103-15.182 7.839 0 12.375 6.871 12.375 15.182 0 1.108-.056 1.884-.112 2.438h-17.582zm4.927-10.971c-2.8 0-4.535 2.271-4.815 5.209h10.079c-.224-2.605-1.792-5.209-5.264-5.209zm-24.403 7.314c0-5.208-1.512-6.76-4.703-6.76-3.192 0-4.76 1.552-4.76 6.594v15.902h-7.727V24.669c0-5.208-1.512-6.76-4.704-6.76-3.192 0-4.76 1.552-4.76 6.594v15.902h-7.727v-29.09h7.727v1.939c1.344-1.384 3.36-2.548 6.44-2.548 3.752 0 5.935 1.052 8.119 3.712 2.016-2.05 4.48-3.712 9.352-3.712 7.503 0 10.471 5.098 10.471 13.297v16.402h-7.728V24.669zm-47.529 13.796c-1.4 1.441-3.863 2.55-6.607 2.55-5.488 0-10.975-3.325-10.975-10.362 0-6.427 5.263-9.641 11.927-9.641 2.687 0 4.423.554 5.655 1.164v-1.441c0-2.05-1.4-3.712-4.199-3.712-3.528 0-5.376.498-8.064 1.939l-2.968-5.319c3.416-1.94 6.272-2.937 11.032-2.937 7.111 0 11.927 3.657 11.927 10.195v19.504h-7.728v-1.94zm0-10.25c-1.344-.831-2.632-1.219-5.375-1.219-2.912 0-4.48 1.33-4.48 3.657 0 2.05 1.176 3.879 4.48 3.879 2.519 0 4.535-1.274 5.375-2.66v-3.657zm-26.945 12.19l-5.599-13.409-3.752 4.598v8.811h-7.727V3.835l7.727-3.823v15.459c0 1.773-.056 4.765-.112 6.205a81.376 81.376 0 0 1 3.136-4.265l4.759-6.096h9.128l-7.56 9.254 8.456 19.836h-8.456zm-30.461-1.829c-1.456 1.275-3.416 2.439-6.216 2.439-6.271 0-11.423-4.655-11.423-15.515 0-8.7 4.144-14.794 11.423-14.794 2.576 0 4.816.997 6.216 2.271V3.835l7.727-3.823v40.393h-7.727v-1.829zm0-18.174c-1.176-1.607-2.968-2.493-5.208-2.493-2.968 0-4.591 2.548-4.591 7.425 0 5.984 2.015 8.477 5.039 8.477 2.408 0 3.64-.997 4.76-2.438V20.402zM259.621 3.835l7.728-3.823v40.393h-7.728V3.835zm-9.664 5.098c-2.408 0-4.424-1.995-4.424-4.378 0-2.382 2.016-4.377 4.424-4.377 2.407 0 4.423 1.995 4.423 4.377 0 2.383-2.016 4.378-4.423 4.378zm-19.694 32.082c-2.576 0-4.816-.998-6.215-2.272v1.662h-7.728V3.835l7.728-3.823v13.132c1.455-1.274 3.415-2.438 6.215-2.438 6.272 0 11.423 4.654 11.423 15.514 0 8.699-4.144 14.795-11.423 14.795zm-1.456-23.106c-2.408 0-3.639.997-4.759 2.438v10.971c1.175 1.606 2.967 2.493 5.207 2.493 2.968 0 4.592-2.548 4.592-7.425 0-5.984-2.016-8.477-5.04-8.477zM207.02 33.701c1.4 0 2.464-.61 4.368-2.217l-1.12 7.758c-1.288.997-3.584 1.773-5.992 1.773-4.759 0-7.839-3.658-7.839-8.755V18.518h-4.928v-7.203h4.928v-7.48l7.727-3.823v11.303h7.056v7.203h-7.056V30.21c0 2.77 1.008 3.491 2.856 3.491zm-23.624-15.349c-3.024 0-4.984 1.274-4.984 6.317v15.736h-7.727v-29.09h7.727v1.939c1.344-1.384 3.304-2.548 6.048-2.548 2.519 0 4.423.997 5.431 2.05l-2.016 7.48c-1.232-1.108-2.743-1.884-4.479-1.884zm-30.17 22.663c-7.672 0-13.271-6.206-13.271-15.127 0-8.92 5.599-15.182 13.271-15.182 7.671 0 13.327 6.262 13.327 15.182 0 8.921-5.656 15.127-13.327 15.127zm0-22.94c-3.696 0-5.432 3.325-5.432 7.813 0 4.488 1.736 7.757 5.432 7.757 3.695 0 5.487-3.713 5.487-7.757 0-4.433-1.792-7.813-5.487-7.813zM135.766 6.55c-2.295 0-2.855.72-2.855 2.327v2.438h4.983v7.203h-4.983v21.887h-7.728V18.518h-3.528v-7.203h3.528v-3.49c0-5.43 3.024-7.647 8.4-7.647 1.903 0 3.527.277 4.871.831V7.16c-.784-.388-1.568-.61-2.688-.61zm-29.397 34.465c-7.671 0-13.271-6.206-13.271-15.127 0-8.92 5.6-15.182 13.271-15.182 7.671 0 13.327 6.262 13.327 15.182 0 8.921-5.656 15.127-13.327 15.127zm0-22.94c-3.696 0-5.432 3.325-5.432 7.813 0 4.488 1.736 7.757 5.432 7.757 3.696 0 5.488-3.713 5.488-7.757 0-4.433-1.792-7.813-5.488-7.813zM90.31 31.927c0 6.705-5.375 9.088-11.983 9.088-4.647 0-9.183-1.33-12.319-3.381l2.576-5.817c3.136 1.717 6.439 2.659 10.191 2.659 3.024 0 3.92-.72 3.92-2.216 0-1.33-1.064-1.995-4.312-2.937-7.055-2.106-11.591-3.823-11.591-9.973 0-6.04 4.872-8.644 11.759-8.644 3.696 0 7.727 1.108 10.863 2.826l-2.464 6.039c-2.911-1.551-6.103-2.327-8.567-2.327-3.136 0-3.976.61-3.976 1.884 0 1.219.896 1.717 6.104 3.38 5.263 1.718 9.799 3.602 9.799 9.419zm163.51 8.478h-7.727v-29.09h7.727v29.09zM35.531 44.988H8.469c-4.662 0-8.456-3.737-8.456-8.329V13.338c0-4.591 3.794-8.328 8.456-8.328h27.062c4.662 0 8.456 3.737 8.456 8.328v23.321c0 4.592-3.794 8.329-8.456 8.329zm5.073-31.65c0-2.755-2.276-4.997-5.073-4.997H8.469c-2.797 0-5.074 2.242-5.074 4.997v4.998h8.903A11.879 11.879 0 0 1 22 13.338c4.013 0 7.56 1.981 9.702 4.998h8.902v-4.998zM13.543 24.999c0 4.592 3.794 8.328 8.457 8.328s8.457-3.736 8.457-8.328c0-4.593-3.794-8.33-8.457-8.33s-8.457 3.737-8.457 8.33zm27.061-3.332h-7.263c.32 1.057.498 2.174.498 3.332 0 6.429-5.311 11.66-11.839 11.66-6.528 0-11.839-5.231-11.839-11.66 0-1.158.178-2.275.498-3.332H3.395v14.992c0 2.755 2.277 4.997 5.074 4.997h27.062c2.797 0 5.073-2.242 5.073-4.997V21.667zm-23.178 1.172a1.615 1.615 0 0 1 0-2.349c.608-.615 1.759-.615 2.385 0 .664.62.685 1.69 0 2.366-.638.627-1.731.662-2.385-.017zm16.413-11.166h1.692c.933 0 1.691.746 1.691 1.665 0 .92-.758 1.666-1.691 1.666h-1.692a1.679 1.679 0 0 1-1.691-1.666c0-.919.757-1.665 1.691-1.665zM16.926 3.344H9.994a1.679 1.679 0 0 1-1.691-1.666c0-.92.757-1.666 1.691-1.666h6.932c.934 0 1.691.746 1.691 1.666 0 .92-.757 1.666-1.691 1.666z"/>
</svg>
